<?xml version="1.0" standalone="no"?>
<!DOCTYPE svg PUBLIC "-//W3C//DTD SVG 20010904//EN"
 "http://www.w3.org/TR/2001/REC-SVG-20010904/DTD/svg10.dtd">
<svg version="1.0" xmlns="http://www.w3.org/2000/svg"
 width="1024.000000pt" height="1024.000000pt" viewBox="0 0 1024.000000 1024.000000"
 preserveAspectRatio="xMidYMid meet">
<metadata>
Created by potrace 1.11, written by Peter Selinger 2001-2013
</metadata>
<g transform="translate(0.000000,1024.000000) scale(0.100000,-0.100000)"
fill="#000000" stroke="none">
<path d="M4838 10165 c-1 -1 -49 -6 -105 -9 -57 -4 -113 -9 -125 -11 -12 -3
-50 -7 -85 -10 -53 -4 -201 -26 -338 -50 -188 -33 -466 -107 -720 -190 l-51
-17 751 -748 c1251 -1248 2639 -2630 2653 -2642 9 -8 12 329 12 1684 l0 1694
-157 52 c-285 93 -544 157 -758 187 -23 3 -50 7 -62 9 -45 9 -116 18 -243 31
-36 3 -85 8 -110 11 -52 6 -656 14 -662 9z"/>
<path d="M2815 9606 c-180 -92 -206 -107 -323 -180 -45 -28 -90 -55 -100 -61
-106 -60 -402 -281 -561 -418 -224 -192 -501 -476 -648 -667 -6 -8 -31 -40
-56 -70 -166 -209 -369 -529 -505 -797 -29 -56 -52 -105 -52 -110 0 -4 1080
-8 2399 -8 l2400 0 -22 24 c-33 34 -2345 2347 -2360 2359 -9 8 -56 -12 -172
-72z"/>
<path d="M7289 9676 c-2 -21 -4 -4794 -2 -4793 1 1 540 539 1197 1196 l1194
1193 -17 37 c-9 20 -38 77 -63 128 -45 86 -58 110 -108 198 -11 19 -29 51 -40
71 -50 87 -220 343 -290 434 -184 241 -277 348 -495 565 -152 152 -201 197
-334 310 -168 143 -423 323 -636 452 -200 120 -404 225 -406 209z"/>
<path d="M330 6723 c-44 -131 -52 -160 -95 -321 -23 -86 -58 -234 -68 -292
-33 -175 -47 -264 -52 -310 -3 -30 -10 -84 -15 -120 -31 -231 -34 -829 -5
-1050 3 -19 7 -60 10 -90 6 -60 13 -111 20 -150 3 -14 7 -41 10 -60 3 -19 7
-46 10 -60 3 -14 7 -41 10 -60 22 -141 99 -452 156 -634 l41 -129 1699 1699
c934 934 1699 1700 1699 1701 0 2 -760 3 -1688 3 l-1689 0 -43 -127z"/>
<path d="M8397 5343 c-1326 -1327 -1593 -1596 -1851 -1861 l-79 -82 1695 0
1695 0 56 173 c75 229 149 520 171 672 4 22 10 65 16 95 11 69 19 129 26 200
3 30 7 66 9 80 20 118 27 665 12 880 -5 63 -10 117 -12 120 -1 3 -6 37 -9 75
-4 39 -8 81 -10 95 -3 14 -7 48 -11 75 -3 28 -15 97 -27 155 -11 58 -22 116
-24 130 -23 128 -174 660 -188 660 -1 0 -662 -660 -1469 -1467z"/>
<path d="M2502 4943 c-242 -241 -783 -779 -1202 -1196 l-761 -758 60 -119 c52
-104 133 -255 161 -300 5 -8 41 -67 80 -130 156 -251 367 -527 570 -744 153
-164 345 -346 480 -456 30 -25 57 -48 60 -51 3 -3 57 -45 120 -92 63 -48 120
-90 125 -95 31 -25 264 -176 345 -224 162 -95 376 -208 395 -208 7 0 10 748
10 2405 0 1323 -1 2405 -1 2405 -1 0 -200 -197 -442 -437z"/>
<path d="M3390 2078 l0 -1695 123 -41 c132 -44 284 -89 412 -121 88 -22 84
-21 240 -51 115 -21 132 -24 205 -35 25 -4 56 -8 70 -10 25 -4 110 -14 165
-20 239 -26 842 -26 1005 -1 14 2 52 7 85 11 110 12 257 35 385 60 41 9 84 17
96 19 55 11 247 59 324 82 137 41 302 96 298 100 -21 23 -457 459 -1799 1796
-877 872 -1597 1589 -1601 1594 -5 4 -8 -755 -8 -1688z"/>
<path d="M4860 2954 c0 -3 2380 -2382 2394 -2393 11 -9 45 4 158 62 78 41 159
84 178 96 19 11 42 24 50 28 114 52 507 326 700 487 140 117 158 133 340 316
299 298 525 582 737 925 104 168 267 474 255 476 -10 2 -4812 4 -4812 3z"/>
</g>
</svg>
